PathFileType	4	(X/Y/Z)	C:\Users\Basilio\Documents\Thesis Gigler\squatting_fais\c3dfiles\019\SLS_front_pre5\markers_experimental.trc
DataRate	CameraRate	NumFrames	NumMarkers	Units	OrigDataRate	OrigDataStartFrame	OrigNumFrames
200.000000	200.000000	4	59	mm	200.000000	0	1531
Frame#	Time	FHD			LBHD			RBHD			C7			T10			CLAV			LSHO			LUUPA			LMUPA			LDUPA			LLEP			LMEP			LRAD			LUL			LRFIN			RSHO			RUPA1			RMUPA			RDUPA			RLEP			RMEP			RRAD			RUL			RUFIN			LASI			RASI			USACR			LSACR			RSACR			LTHI1			LTHI2			LTHI3			LTHI4			LLFC			LTIB1			LTIB2			LTIB3			LTIB4			LLMAL			LMMAL			LHEE			LMT1			LMT2			LMT5			RTHI3			RTHI4			RLFC			RTIB1			RTIB2			RTIB3			RTIB4			RLMAL			RMMAL			RHEE			RMT1			RMT2			RMT5			RTHI			RTHI2			
		X1	Y1	Z1	X2	Y2	Z2	X3	Y3	Z3	X4	Y4	Z4	X5	Y5	Z5	X6	Y6	Z6	X7	Y7	Z7	X8	Y8	Z8	X9	Y9	Z9	X10	Y10	Z10	X11	Y11	Z11	X12	Y12	Z12	X13	Y13	Z13	X14	Y14	Z14	X15	Y15	Z15	X16	Y16	Z16	X17	Y17	Z17	X18	Y18	Z18	X19	Y19	Z19	X20	Y20	Z20	X21	Y21	Z21	X22	Y22	Z22	X23	Y23	Z23	X24	Y24	Z24	X25	Y25	Z25	X26	Y26	Z26	X27	Y27	Z27	X28	Y28	Z28	X29	Y29	Z29	X30	Y30	Z30	X31	Y31	Z31	X32	Y32	Z32	X33	Y33	Z33	X34	Y34	Z34	X35	Y35	Z35	X36	Y36	Z36	X37	Y37	Z37	X38	Y38	Z38	X39	Y39	Z39	X40	Y40	Z40	X41	Y41	Z41	X42	Y42	Z42	X43	Y43	Z43	X44	Y44	Z44	X45	Y45	Z45	X46	Y46	Z46	X47	Y47	Z47	X48	Y48	Z48	X49	Y49	Z49	X50	Y50	Z50	X51	Y51	Z51	X52	Y52	Z52	X53	Y53	Z53	X54	Y54	Z54	X55	Y55	Z55	X56	Y56	Z56	X57	Y57	Z57	X58	Y58	Z58	X59	Y59	Z59	

1	0	-260.5718994140626	1714.797241210938	-683.9177246093751	-395.8923339843751	1683.037475585938	-820.221618652344	-393.2770080566407	1678.089721679688	-680.2817993164064	-428.4246520996095	1504.000732421875	-742.5607910156251	-454.0559082031251	1208.452270507813	-742.6398315429689	-297.5444946289063	1450.541015625	-754.6285400390626	-361.7301330566407	1484.508422851563	-906.6900634765627	-301.4028930664063	1333.459838867188	-968.6570434570315	-271.7937011718751	1314.88818359375	-933.3920898437502	-267.2547912597657	1275.983764648438	-979.4617309570315	-265.8643798828126	1195.058715820313	-1003.051452636719	-304.8877868652344	1164.222045898438	-967.7259521484377	-104.4971771240235	997.4282836914065	-965.1066894531252	-136.2705383300782	993.0776367187502	-1023.429992675781	-56.53693771362306	941.533874511719	-980.663757324219	-334.5396728515626	1478.175659179688	-603.9963378906251	-305.2628479003907	1301.316284179688	-509.5898742675782	-263.3195800781251	1293.93310546875	-530.1804809570314	-271.8046264648438	1239.58447265625	-501.6241455078126	-231.2609405517579	1180.879638671875	-507.1773681640626	-275.5600585937501	1154.04345703125	-534.3811035156251	-70.81857299804689	995.1422119140627	-562.8866577148439	-80.64797210693361	986.9577636718752	-495.3147277832032	-13.49320030212403	939.4812622070315	-548.1287231445314	-293.3410949707032	1014.040222167969	-873.7982177734377	-272.9250488281251	1007.870971679688	-662.4827880859376	-447.0864562988282	1075.318115234375	-748.1500854492189	-453.4501342773439	1043.036865234375	-776.8240356445315	-446.5733947753907	1043.318115234375	-719.6446533203126	-330.9020690917969	759.9067382812501	-963.0857543945315	-284.8391723632813	687.8112182617189	-970.2329101562502	-240.2394561767579	696.5925292968751	-954.318542480469	-304.8492126464844	630.4478149414064	-964.7926025390627	-300.3721313476563	534.8004760742189	-963.247253417969	-271.7688598632813	388.4046325683595	-945.483825683594	-331.3490600585938	360.9245300292969	-1007.011047363281	-297.6321716308594	348.7696533203126	-981.979187011719	-315.4751586914063	266.7142944335938	-957.6550292968752	-401.8992309570314	154.4575500488282	-1000.108093261719	-386.3798828125001	149.7790832519532	-920.4349365234377	-478.6163635253907	123.0443115234375	-955.4226684570315	-266.4764709472657	66.23894500732423	-939.4124145507815	-265.3439331054688	68.84087371826173	-981.997009277344	-313.1626586914063	57.56413650512697	-1034.222900390625	-244.4869842529297	758.9987792968751	-628.4779052734376	-294.0013427734376	673.6243286132814	-608.2521972656251	-332.5472717285157	511.8966064453126	-644.8064575195314	-298.7921142578126	333.8426818847657	-715.1546020507814	-353.0183715820313	251.4300689697266	-663.0766601562501	-320.8543701171876	251.2135162353516	-697.1189575195314	-332.1467590332032	212.8379974365235	-740.6026611328126	-393.5847778320314	127.34814453125	-702.1723022460939	-376.8585510253907	135.4479675292969	-776.0660400390627	-456.4497680664064	106.0949096679688	-754.7055664062501	-257.4386901855469	56.8585891723633	-776.1551513671877	-250.2579498291016	54.18706512451173	-734.8427734375001	-294.7385253906251	49.8929901123047	-676.7712402343751	nan	nan	nan	nan	nan	nan	
2	0.005	-261.0492553710938	1714.629272460938	-683.2929077148439	-396.4828491210939	1683.171142578125	-819.5439453125002	-393.6439208984376	1677.699096679688	-679.7445678710939	-429.000701904297	1504.0185546875	-742.0194091796876	-454.3320617675782	1208.422973632813	-742.1318359375001	-298.0207519531251	1450.674194335938	-754.0870971679689	-362.1138305664063	1484.6884765625	-905.985778808594	-300.4601745605469	1334.776000976563	-968.148132324219	-270.8497619628907	1316.433959960938	-932.772155761719	-265.5038757324219	1277.772705078125	-978.9993286132815	-263.0671386718751	1196.89697265625	-1002.926513671875	-301.7441101074219	1165.4462890625	-967.8992309570315	-99.22560119628909	1001.465209960938	-964.249450683594	-130.3375091552735	996.8392333984377	-1022.850280761719	-50.20959854125978	946.3267822265627	-979.4929199218752	-335.2083740234376	1478.288818359375	-603.6036376953126	-303.9236145019532	1302.182373046875	-509.1753845214845	-263.2057495117188	1297.158203125	-530.9213256835939	-269.5570983886719	1240.802001953125	-500.9454345703126	-228.0379791259766	1182.781127929688	-506.6704711914064	-272.0721130371094	1155.346435546875	-533.6342163085939	-65.25402832031251	999.193054199219	-562.5892333984376	-74.66769409179689	991.0413208007815	-494.7541503906251	-7.243217945098879	944.4185791015627	-547.9525756835939	-293.5810241699219	1014.227966308594	-873.4417724609377	-272.2139282226563	1008.432373046875	-663.4573364257814	-447.3238525390626	1075.298950195313	-747.7057495117189	-453.7958374023439	1043.052368164063	-776.4528808593752	-446.8359375000001	1043.328002929688	-719.2947998046876	-330.9137573242188	760.0604248046876	-962.7841796875002	-284.8944702148438	687.9780883789064	-969.9737548828127	-240.303939819336	696.7502441406251	-953.9815673828127	-304.9680480957032	630.6000976562501	-964.572692871094	-300.5123596191407	534.9809570312501	-963.0323486328127	-272.0038757324219	388.4775695800782	-945.2828369140627	-331.5164489746094	361.0232849121094	-1006.867736816406	-297.8150939941407	348.9211425781251	-981.8452758789065	-315.6290893554688	266.8546142578126	-957.550720214844	-401.9580993652345	154.4891204833985	-1000.163940429688	-386.6369628906251	149.8742065429688	-920.4581298828127	-478.6531372070314	122.9673156738282	-955.6194458007815	-264.5418090820313	64.93363189697267	-939.5935668945315	-265.3262023925782	68.90086364746095	-980.9431762695315	-313.0400390625001	57.90950393676759	-1034.275268554688	-244.6699981689454	758.9892578125001	-628.2297973632814	-294.1609497070313	673.6021728515626	-607.9876098632814	-332.8096313476563	511.856414794922	-644.6569213867189	-298.9166564941407	333.8430175781251	-715.0216064453126	-353.0991210937501	251.4215393066407	-663.0042114257814	-320.9433593750001	251.2320404052735	-697.0320434570314	-332.2157287597657	212.8578491210938	-740.5236816406251	-393.5517883300782	127.3341751098633	-702.1879272460939	-376.8481445312501	135.418441772461	-776.0406494140627	-456.3018493652345	106.1082229614258	-754.6715698242189	-257.4925842285157	56.85705184936525	-776.193054199219	-250.2701416015626	54.142391204834	-735.0276489257814	-294.7407836914063	49.90526962280275	-676.7357177734376	nan	nan	nan	nan	nan	nan	
3	0.01	-261.4813842773438	1714.66845703125	-683.0286254882814	-397.1178283691407	1683.220336914063	-818.9647216796877	-394.2324218750001	1678.223266601563	-679.0816650390626	-429.512664794922	1503.946411132813	-741.5029907226564	-454.6387329101564	1208.398559570313	-741.6529541015626	-298.4790649414063	1450.788330078125	-753.5326538085939	-362.4393615722657	1484.866333007813	-905.2832031250002	-299.3625793457032	1336.086303710938	-967.5445556640627	-269.7603149414063	1317.943725585938	-932.1448974609377	-263.7269897460938	1279.54638671875	-978.457946777344	-260.0815734863282	1198.842041015625	-1002.746887207031	-299.7417907714844	1166.696533203125	-968.975524902344	-93.83150482177736	1005.599060058594	-963.3505859375002	-124.3639450073242	1000.693542480469	-1022.222778320313	-43.88411331176759	951.2405395507815	-978.3513793945315	-335.7522888183594	1478.420532226563	-603.1632080078126	-302.4587097167969	1303.119140625	-508.6976013183595	-261.6554260253907	1298.542358398438	-530.5128173828126	-267.2750549316407	1241.707275390625	-499.8838195800782	-224.9218139648438	1184.642456054688	-506.1614685058595	-268.5615844726563	1156.617553710938	-532.9604492187501	-59.69411849975587	1003.415710449219	-562.3479614257814	-68.76742553710939	995.1072998046877	-494.2763977050782	-0.6419100761413575	949.7469482421877	-547.8789672851564	-294.3138427734376	1014.048767089844	-873.4951782226565	-273.4988403320313	1007.389282226563	-661.2175292968751	-447.4862060546876	1075.3115234375	-747.2997436523439	-453.9518432617189	1043.042602539063	-776.0799560546877	-447.050750732422	1043.261840820313	-718.9566040039064	-331.0187988281251	760.1801757812501	-962.4939575195315	-284.9772644042969	688.0848388671876	-969.7368164062502	-240.4589385986329	696.8772583007814	-953.742614746094	-305.0880432128907	630.7115478515626	-964.3294677734377	-300.6290893554688	535.0967407226564	-962.794372558594	-272.2269287109376	388.6262207031251	-945.0983886718752	-331.6972045898438	361.1842346191407	-1006.790893554688	-297.9641723632813	349.0261230468751	-981.6841430664065	-315.8386230468751	266.9457397460938	-957.4241943359377	-402.0814514160157	154.5525970458985	-1000.254455566406	-386.9321289062501	149.975082397461	-920.448425292969	-478.8185424804689	122.9227523803711	-955.8911743164065	-266.6814880371094	66.70216369628908	-938.616638183594	-265.1410522460938	69.09899139404298	-980.5268554687502	-312.8464660644532	57.93320083618165	-1033.925170898438	-244.8563079833985	758.9651489257814	-627.9893798828126	-294.3982238769532	673.5993041992189	-607.7425537109376	-333.0209350585938	511.8816223144532	-644.4754028320314	-299.0409545898438	333.8766784667969	-714.9313354492189	-353.2777099609376	251.4687652587891	-662.8757324218751	-321.0977783203126	251.2761688232422	-696.9080810546876	-332.2555541992188	212.8559265136719	-740.4559326171876	-393.6089172363282	127.3591613769532	-702.1605224609376	-376.8382263183594	135.416732788086	-776.0010986328127	-456.3951110839845	106.1262588500977	-754.6999511718751	-257.8134155273438	57.15875625610353	-776.1773681640627	-250.253646850586	54.15171432495119	-734.9464721679689	-294.7919921875001	49.95273590087892	-676.7471313476564	-309.8498229980469	801.8048095703127	-595.8629150390626	nan	nan	nan	
4	0.015	-262.0244750976563	1714.580810546875	-682.2963256835939	-397.7932128906251	1683.363891601563	-818.3096923828127	-394.6898803710939	1678.430786132813	-678.5115966796876	-430.0614624023439	1503.908203125	-740.9874877929689	-454.8294067382814	1208.32421875	-741.1605834960939	-298.8121643066407	1450.963134765625	-752.9414062500001	-362.8533935546876	1485.082153320313	-904.5422363281252	-298.2159729003907	1337.513061523438	-966.992858886719	-268.6194458007813	1319.528930664063	-931.4643554687502	-261.8368225097657	1281.436401367188	-977.9129638671877	-257.2754516601563	1200.826782226563	-1002.654113769531	-295.9395751953126	1167.769287109375	-968.6057128906252	-88.12871551513673	1010.031127929688	-962.001647949219	-118.3983535766602	1004.71826171875	-1021.701843261719	-37.65625762939454	956.2656250000002	-977.2932739257815	-336.1922912597657	1478.52490234375	-602.7278442382814	-301.2403259277344	1304.114624023438	-508.3342895507814	-258.9206542968751	1298.251708984375	-528.8601684570314	-265.0487670898438	1243.684692382813	-499.6720275878907	-221.7135162353516	1186.766479492188	-505.6246337890626	-265.2201843261719	1157.982055664063	-532.2664794921876	-54.16271209716798	1007.775268554688	-562.0990600585939	-63.03997039794923	999.289001464844	-493.7388610839845	5.864929676055909	955.1824340820315	-547.6781616210939	-293.7948913574219	1014.437072753906	-872.5588989257815	-273.7053527832032	1007.459411621094	-660.8914184570314	-447.666717529297	1075.341552734375	-746.8691406250001	-454.0928344726564	1043.085205078125	-775.6458129882815	-447.2761230468751	1043.255126953125	-718.5809326171876	-331.1454772949219	760.3180541992189	-962.1976318359377	-285.1159973144532	688.2277832031251	-969.4754028320315	-240.6050262451172	696.9963989257814	-953.5186157226565	-305.1679992675782	630.8727416992189	-964.1301879882815	-300.7799987792969	535.2451782226564	-962.6104736328127	-272.3466491699219	388.7180786132814	-944.8576660156252	-331.8521118164063	361.3461914062501	-1006.638061523438	-298.1714782714844	349.1342163085938	-981.539001464844	-316.0444335937501	267.1069641113282	-957.2619628906252	-401.9962768554689	154.5569915771485	-1000.261779785156	-387.2321166992189	150.0987091064453	-920.4471435546877	-479.036590576172	122.9461288452149	-956.2968750000002	-266.8625488281251	66.94179534912111	-938.0877075195315	-265.2726440429688	69.25743103027345	-979.9797973632815	-312.5454406738282	57.93390274047853	-1033.484130859375	-244.9048919677735	758.9832153320314	-627.7776489257814	-294.5792541503907	673.5466918945314	-607.5913696289064	-333.0879211425782	512.1705322265626	-644.3027343750001	-298.6172790527344	333.5827636718751	-714.9765014648439	-353.2960815429688	251.4315490722657	-662.8644409179689	-321.1510620117188	251.2825775146485	-696.8240356445314	-331.9882507324219	212.5695190429688	-740.4700317382814	-393.569061279297	127.2993392944336	-702.0914916992189	-376.8488464355469	135.4828186035157	-776.0032348632815	-456.3291931152345	106.1042709350586	-754.7238159179689	-257.8001098632813	57.1562957763672	-776.1802368164065	-250.2701416015626	54.142391204834	-735.0276489257814	-294.8160705566407	49.92985916137697	-676.7482299804689	-310.1264953613282	802.0948486328127	-594.6216430664064	nan	nan	nan	
